<mxfile host="app.diagrams.net" modified="2023-07-21T12:17:08.423Z" agent="Mozilla/5.0 (Windows NT 10.0; Win64; x64; rv:109.0) Gecko/20100101 Firefox/116.0" etag="z13zsumsQeQxj3dpFOUT" version="21.5.2" type="device">
  <diagram name="Page-1" id="AlQgFYiAesxGKjzgry_K">
    <mxGraphModel dx="3217" dy="1243" grid="1" gridSize="10" guides="1" tooltips="1" connect="1" arrows="1" fold="1" page="1" pageScale="1" pageWidth="827" pageHeight="1169" math="0" shadow="0">
      <root>
        <mxCell id="0" />
        <mxCell id="1" parent="0" />
        <mxCell id="B6xTi430lZFlDptCgqHK-29" value="" style="rounded=0;whiteSpace=wrap;html=1;movable=1;resizable=1;rotatable=1;deletable=1;editable=1;locked=0;connectable=1;labelBackgroundColor=none;" vertex="1" parent="1">
          <mxGeometry x="-340" y="180" width="1320" height="2560" as="geometry" />
        </mxCell>
        <mxCell id="Edj0TxdFYXE61bS8NGij-17" style="edgeStyle=elbowEdgeStyle;rounded=0;orthogonalLoop=1;jettySize=auto;html=1;elbow=vertical;curved=0;" parent="1" target="Edj0TxdFYXE61bS8NGij-15" edge="1">
          <mxGeometry relative="1" as="geometry">
            <mxPoint x="88.83333333333348" y="1400" as="sourcePoint" />
            <Array as="points">
              <mxPoint x="250" y="1400" />
            </Array>
          </mxGeometry>
        </mxCell>
        <mxCell id="Edj0TxdFYXE61bS8NGij-18" value="Accède à la page mot de passe oublié" style="edgeLabel;html=1;align=center;verticalAlign=middle;resizable=0;points=[];" parent="Edj0TxdFYXE61bS8NGij-17" vertex="1" connectable="0">
          <mxGeometry x="-0.2764" relative="1" as="geometry">
            <mxPoint x="45" y="-10" as="offset" />
          </mxGeometry>
        </mxCell>
        <mxCell id="VzBomBVX7HgXpCq8d6OW-27" value=":Visiteur" style="shape=umlLifeline;perimeter=lifelinePerimeter;whiteSpace=wrap;html=1;container=1;dropTarget=0;collapsible=0;recursiveResize=0;outlineConnect=0;portConstraint=eastwest;newEdgeStyle={&quot;edgeStyle&quot;:&quot;elbowEdgeStyle&quot;,&quot;elbow&quot;:&quot;vertical&quot;,&quot;curved&quot;:0,&quot;rounded&quot;:0};" parent="1" vertex="1">
          <mxGeometry x="39" y="200" width="100" height="2640" as="geometry" />
        </mxCell>
        <mxCell id="VzBomBVX7HgXpCq8d6OW-50" value="" style="html=1;points=[];perimeter=orthogonalPerimeter;outlineConnect=0;targetShapes=umlLifeline;portConstraint=eastwest;newEdgeStyle={&quot;edgeStyle&quot;:&quot;elbowEdgeStyle&quot;,&quot;elbow&quot;:&quot;vertical&quot;,&quot;curved&quot;:0,&quot;rounded&quot;:0};" parent="VzBomBVX7HgXpCq8d6OW-27" vertex="1">
          <mxGeometry x="45" y="160" width="10" height="2320" as="geometry" />
        </mxCell>
        <mxCell id="VzBomBVX7HgXpCq8d6OW-28" value=":Site web" style="shape=umlLifeline;perimeter=lifelinePerimeter;whiteSpace=wrap;html=1;container=1;dropTarget=0;collapsible=0;recursiveResize=0;outlineConnect=0;portConstraint=eastwest;newEdgeStyle={&quot;edgeStyle&quot;:&quot;elbowEdgeStyle&quot;,&quot;elbow&quot;:&quot;vertical&quot;,&quot;curved&quot;:0,&quot;rounded&quot;:0};" parent="1" vertex="1">
          <mxGeometry x="363" y="200" width="100" height="2640" as="geometry" />
        </mxCell>
        <mxCell id="VzBomBVX7HgXpCq8d6OW-47" value="" style="html=1;points=[];perimeter=orthogonalPerimeter;outlineConnect=0;targetShapes=umlLifeline;portConstraint=eastwest;newEdgeStyle={&quot;edgeStyle&quot;:&quot;elbowEdgeStyle&quot;,&quot;elbow&quot;:&quot;vertical&quot;,&quot;curved&quot;:0,&quot;rounded&quot;:0};" parent="VzBomBVX7HgXpCq8d6OW-28" vertex="1">
          <mxGeometry x="45" y="160" width="10" height="80.2" as="geometry" />
        </mxCell>
        <mxCell id="K-DtrOPmyeC8XMphnXIH-2" value="" style="html=1;points=[];perimeter=orthogonalPerimeter;outlineConnect=0;targetShapes=umlLifeline;portConstraint=eastwest;newEdgeStyle={&quot;edgeStyle&quot;:&quot;elbowEdgeStyle&quot;,&quot;elbow&quot;:&quot;vertical&quot;,&quot;curved&quot;:0,&quot;rounded&quot;:0};" parent="VzBomBVX7HgXpCq8d6OW-28" vertex="1">
          <mxGeometry x="45" y="320" width="10" height="80.2" as="geometry" />
        </mxCell>
        <mxCell id="drv3APGmW7GYEXX_s7Kb-21" value="" style="html=1;points=[];perimeter=orthogonalPerimeter;outlineConnect=0;targetShapes=umlLifeline;portConstraint=eastwest;newEdgeStyle={&quot;edgeStyle&quot;:&quot;elbowEdgeStyle&quot;,&quot;elbow&quot;:&quot;vertical&quot;,&quot;curved&quot;:0,&quot;rounded&quot;:0};" parent="VzBomBVX7HgXpCq8d6OW-28" vertex="1">
          <mxGeometry x="46" y="2240" width="10" height="80.2" as="geometry" />
        </mxCell>
        <mxCell id="drv3APGmW7GYEXX_s7Kb-27" value="" style="html=1;points=[];perimeter=orthogonalPerimeter;outlineConnect=0;targetShapes=umlLifeline;portConstraint=eastwest;newEdgeStyle={&quot;edgeStyle&quot;:&quot;elbowEdgeStyle&quot;,&quot;elbow&quot;:&quot;vertical&quot;,&quot;curved&quot;:0,&quot;rounded&quot;:0};" parent="VzBomBVX7HgXpCq8d6OW-28" vertex="1">
          <mxGeometry x="45" y="2400.4" width="10" height="80.2" as="geometry" />
        </mxCell>
        <mxCell id="Edj0TxdFYXE61bS8NGij-8" value="" style="html=1;points=[];perimeter=orthogonalPerimeter;outlineConnect=0;targetShapes=umlLifeline;portConstraint=eastwest;newEdgeStyle={&quot;edgeStyle&quot;:&quot;elbowEdgeStyle&quot;,&quot;elbow&quot;:&quot;vertical&quot;,&quot;curved&quot;:0,&quot;rounded&quot;:0};" parent="VzBomBVX7HgXpCq8d6OW-28" vertex="1">
          <mxGeometry x="46" y="480" width="10" height="80.2" as="geometry" />
        </mxCell>
        <mxCell id="Edj0TxdFYXE61bS8NGij-15" value="" style="html=1;points=[];perimeter=orthogonalPerimeter;outlineConnect=0;targetShapes=umlLifeline;portConstraint=eastwest;newEdgeStyle={&quot;edgeStyle&quot;:&quot;elbowEdgeStyle&quot;,&quot;elbow&quot;:&quot;vertical&quot;,&quot;curved&quot;:0,&quot;rounded&quot;:0};" parent="VzBomBVX7HgXpCq8d6OW-28" vertex="1">
          <mxGeometry x="46" y="1200" width="10" height="80.2" as="geometry" />
        </mxCell>
        <mxCell id="Edj0TxdFYXE61bS8NGij-21" value="" style="html=1;points=[];perimeter=orthogonalPerimeter;outlineConnect=0;targetShapes=umlLifeline;portConstraint=eastwest;newEdgeStyle={&quot;edgeStyle&quot;:&quot;elbowEdgeStyle&quot;,&quot;elbow&quot;:&quot;vertical&quot;,&quot;curved&quot;:0,&quot;rounded&quot;:0};" parent="VzBomBVX7HgXpCq8d6OW-28" vertex="1">
          <mxGeometry x="45" y="1360" width="10" height="80.2" as="geometry" />
        </mxCell>
        <mxCell id="Edj0TxdFYXE61bS8NGij-28" value="" style="html=1;points=[];perimeter=orthogonalPerimeter;outlineConnect=0;targetShapes=umlLifeline;portConstraint=eastwest;newEdgeStyle={&quot;edgeStyle&quot;:&quot;elbowEdgeStyle&quot;,&quot;elbow&quot;:&quot;vertical&quot;,&quot;curved&quot;:0,&quot;rounded&quot;:0};" parent="VzBomBVX7HgXpCq8d6OW-28" vertex="1">
          <mxGeometry x="46" y="2080" width="10" height="80.2" as="geometry" />
        </mxCell>
        <mxCell id="mK7OmSGrJ99h75W3Krdq-23" value="" style="html=1;points=[];perimeter=orthogonalPerimeter;outlineConnect=0;targetShapes=umlLifeline;portConstraint=eastwest;newEdgeStyle={&quot;edgeStyle&quot;:&quot;elbowEdgeStyle&quot;,&quot;elbow&quot;:&quot;vertical&quot;,&quot;curved&quot;:0,&quot;rounded&quot;:0};" parent="VzBomBVX7HgXpCq8d6OW-28" vertex="1">
          <mxGeometry x="46" y="1520" width="10" height="80.2" as="geometry" />
        </mxCell>
        <mxCell id="drv3APGmW7GYEXX_s7Kb-1" value=":BDD" style="shape=umlLifeline;perimeter=lifelinePerimeter;whiteSpace=wrap;html=1;container=1;dropTarget=0;collapsible=0;recursiveResize=0;outlineConnect=0;portConstraint=eastwest;newEdgeStyle={&quot;edgeStyle&quot;:&quot;elbowEdgeStyle&quot;,&quot;elbow&quot;:&quot;vertical&quot;,&quot;curved&quot;:0,&quot;rounded&quot;:0};" parent="1" vertex="1">
          <mxGeometry x="689" y="200" width="100" height="2640" as="geometry" />
        </mxCell>
        <mxCell id="drv3APGmW7GYEXX_s7Kb-24" value="" style="html=1;points=[];perimeter=orthogonalPerimeter;outlineConnect=0;targetShapes=umlLifeline;portConstraint=eastwest;newEdgeStyle={&quot;edgeStyle&quot;:&quot;elbowEdgeStyle&quot;,&quot;elbow&quot;:&quot;vertical&quot;,&quot;curved&quot;:0,&quot;rounded&quot;:0};" parent="drv3APGmW7GYEXX_s7Kb-1" vertex="1">
          <mxGeometry x="45" y="2320.2" width="10" height="80.2" as="geometry" />
        </mxCell>
        <mxCell id="Edj0TxdFYXE61bS8NGij-5" value="" style="html=1;points=[];perimeter=orthogonalPerimeter;outlineConnect=0;targetShapes=umlLifeline;portConstraint=eastwest;newEdgeStyle={&quot;edgeStyle&quot;:&quot;elbowEdgeStyle&quot;,&quot;elbow&quot;:&quot;vertical&quot;,&quot;curved&quot;:0,&quot;rounded&quot;:0};" parent="drv3APGmW7GYEXX_s7Kb-1" vertex="1">
          <mxGeometry x="45" y="400" width="10" height="80.2" as="geometry" />
        </mxCell>
        <mxCell id="mK7OmSGrJ99h75W3Krdq-13" value="" style="html=1;points=[];perimeter=orthogonalPerimeter;outlineConnect=0;targetShapes=umlLifeline;portConstraint=eastwest;newEdgeStyle={&quot;edgeStyle&quot;:&quot;elbowEdgeStyle&quot;,&quot;elbow&quot;:&quot;vertical&quot;,&quot;curved&quot;:0,&quot;rounded&quot;:0};" parent="drv3APGmW7GYEXX_s7Kb-1" vertex="1">
          <mxGeometry x="45" y="839.9000000000001" width="10" height="80.2" as="geometry" />
        </mxCell>
        <mxCell id="mK7OmSGrJ99h75W3Krdq-21" value="" style="html=1;points=[];perimeter=orthogonalPerimeter;outlineConnect=0;targetShapes=umlLifeline;portConstraint=eastwest;newEdgeStyle={&quot;edgeStyle&quot;:&quot;elbowEdgeStyle&quot;,&quot;elbow&quot;:&quot;vertical&quot;,&quot;curved&quot;:0,&quot;rounded&quot;:0};" parent="drv3APGmW7GYEXX_s7Kb-1" vertex="1">
          <mxGeometry x="45" y="1600.2" width="10" height="80.2" as="geometry" />
        </mxCell>
        <mxCell id="drv3APGmW7GYEXX_s7Kb-58" value="frame" style="shape=umlFrame;whiteSpace=wrap;html=1;pointerEvents=0;" parent="1" vertex="1">
          <mxGeometry x="-320" y="2240" width="1280" height="480" as="geometry" />
        </mxCell>
        <mxCell id="drv3APGmW7GYEXX_s7Kb-59" value="&lt;div&gt;Consulter une figure et&lt;/div&gt;&lt;div&gt;son espace de discussion&lt;br&gt;&lt;/div&gt;" style="text;html=1;align=left;verticalAlign=middle;resizable=0;points=[];autosize=1;strokeColor=none;fillColor=none;fontSize=24;" parent="1" vertex="1">
          <mxGeometry x="-300" y="2290" width="300" height="70" as="geometry" />
        </mxCell>
        <mxCell id="drv3APGmW7GYEXX_s7Kb-60" value="frame" style="shape=umlFrame;whiteSpace=wrap;html=1;pointerEvents=0;" parent="1" vertex="1">
          <mxGeometry x="-320" y="320" width="1280" height="480" as="geometry" />
        </mxCell>
        <mxCell id="drv3APGmW7GYEXX_s7Kb-61" value="S&#39;inscrire" style="text;html=1;align=center;verticalAlign=middle;resizable=0;points=[];autosize=1;strokeColor=none;fillColor=none;fontSize=24;" parent="1" vertex="1">
          <mxGeometry x="-300" y="370" width="120" height="40" as="geometry" />
        </mxCell>
        <mxCell id="Edj0TxdFYXE61bS8NGij-1" style="edgeStyle=elbowEdgeStyle;rounded=0;orthogonalLoop=1;jettySize=auto;html=1;elbow=vertical;curved=0;dashed=1;" parent="1" source="VzBomBVX7HgXpCq8d6OW-47" edge="1">
          <mxGeometry relative="1" as="geometry">
            <mxPoint x="94" y="440" as="targetPoint" />
            <Array as="points">
              <mxPoint x="270" y="440" />
            </Array>
          </mxGeometry>
        </mxCell>
        <mxCell id="Edj0TxdFYXE61bS8NGij-2" value="Affiche la page d&#39;inscription" style="edgeLabel;html=1;align=center;verticalAlign=middle;resizable=0;points=[];" parent="Edj0TxdFYXE61bS8NGij-1" vertex="1" connectable="0">
          <mxGeometry x="-0.2317" y="-1" relative="1" as="geometry">
            <mxPoint x="-38" y="-9" as="offset" />
          </mxGeometry>
        </mxCell>
        <mxCell id="Edj0TxdFYXE61bS8NGij-3" style="edgeStyle=elbowEdgeStyle;rounded=0;orthogonalLoop=1;jettySize=auto;html=1;elbow=vertical;curved=0;" parent="1" target="K-DtrOPmyeC8XMphnXIH-2" edge="1">
          <mxGeometry relative="1" as="geometry">
            <mxPoint x="94" y="520" as="sourcePoint" />
            <Array as="points">
              <mxPoint x="310" y="520" />
            </Array>
          </mxGeometry>
        </mxCell>
        <mxCell id="Edj0TxdFYXE61bS8NGij-4" value="Remplit le formulaire d&#39;inscription" style="edgeLabel;html=1;align=center;verticalAlign=middle;resizable=0;points=[];" parent="Edj0TxdFYXE61bS8NGij-3" vertex="1" connectable="0">
          <mxGeometry x="-0.3959" y="1" relative="1" as="geometry">
            <mxPoint x="61" y="-9" as="offset" />
          </mxGeometry>
        </mxCell>
        <mxCell id="Edj0TxdFYXE61bS8NGij-6" style="edgeStyle=elbowEdgeStyle;rounded=0;orthogonalLoop=1;jettySize=auto;html=1;elbow=vertical;curved=0;" parent="1" source="K-DtrOPmyeC8XMphnXIH-2" target="Edj0TxdFYXE61bS8NGij-5" edge="1">
          <mxGeometry relative="1" as="geometry" />
        </mxCell>
        <mxCell id="Edj0TxdFYXE61bS8NGij-7" value="Requête l&#39;enregistrement utilisateur" style="edgeLabel;html=1;align=center;verticalAlign=middle;resizable=0;points=[];" parent="Edj0TxdFYXE61bS8NGij-6" vertex="1" connectable="0">
          <mxGeometry x="-0.3654" y="-1" relative="1" as="geometry">
            <mxPoint x="55" y="-11" as="offset" />
          </mxGeometry>
        </mxCell>
        <mxCell id="Edj0TxdFYXE61bS8NGij-9" style="edgeStyle=elbowEdgeStyle;rounded=0;orthogonalLoop=1;jettySize=auto;html=1;elbow=vertical;curved=0;dashed=1;" parent="1" source="Edj0TxdFYXE61bS8NGij-5" target="Edj0TxdFYXE61bS8NGij-8" edge="1">
          <mxGeometry relative="1" as="geometry" />
        </mxCell>
        <mxCell id="Edj0TxdFYXE61bS8NGij-10" value="Confirmation d&#39;enregistrement" style="edgeLabel;html=1;align=center;verticalAlign=middle;resizable=0;points=[];" parent="Edj0TxdFYXE61bS8NGij-9" vertex="1" connectable="0">
          <mxGeometry x="0.2482" y="1" relative="1" as="geometry">
            <mxPoint x="31" y="-11" as="offset" />
          </mxGeometry>
        </mxCell>
        <mxCell id="Edj0TxdFYXE61bS8NGij-11" style="edgeStyle=elbowEdgeStyle;rounded=0;orthogonalLoop=1;jettySize=auto;html=1;elbow=vertical;curved=0;dashed=1;" parent="1" source="Edj0TxdFYXE61bS8NGij-8" edge="1">
          <mxGeometry relative="1" as="geometry">
            <mxPoint x="94" y="760" as="targetPoint" />
            <Array as="points">
              <mxPoint x="270" y="760" />
            </Array>
          </mxGeometry>
        </mxCell>
        <mxCell id="Edj0TxdFYXE61bS8NGij-12" value="Affiche un message de succès" style="edgeLabel;html=1;align=center;verticalAlign=middle;resizable=0;points=[];" parent="Edj0TxdFYXE61bS8NGij-11" vertex="1" connectable="0">
          <mxGeometry x="0.0476" y="-2" relative="1" as="geometry">
            <mxPoint y="-8" as="offset" />
          </mxGeometry>
        </mxCell>
        <mxCell id="Edj0TxdFYXE61bS8NGij-13" style="edgeStyle=elbowEdgeStyle;rounded=0;orthogonalLoop=1;jettySize=auto;html=1;elbow=vertical;curved=0;" parent="1" source="VzBomBVX7HgXpCq8d6OW-50" target="VzBomBVX7HgXpCq8d6OW-47" edge="1">
          <mxGeometry relative="1" as="geometry">
            <Array as="points">
              <mxPoint x="220" y="360" />
            </Array>
          </mxGeometry>
        </mxCell>
        <mxCell id="Edj0TxdFYXE61bS8NGij-14" value="Accède à la page d&#39;inscription" style="edgeLabel;html=1;align=center;verticalAlign=middle;resizable=0;points=[];" parent="Edj0TxdFYXE61bS8NGij-13" vertex="1" connectable="0">
          <mxGeometry x="-0.0676" y="2" relative="1" as="geometry">
            <mxPoint x="9" y="-8" as="offset" />
          </mxGeometry>
        </mxCell>
        <mxCell id="Edj0TxdFYXE61bS8NGij-19" style="edgeStyle=elbowEdgeStyle;rounded=0;orthogonalLoop=1;jettySize=auto;html=1;elbow=vertical;curved=0;dashed=1;" parent="1" source="Edj0TxdFYXE61bS8NGij-15" edge="1">
          <mxGeometry relative="1" as="geometry">
            <mxPoint x="94" y="1480" as="targetPoint" />
            <Array as="points">
              <mxPoint x="230" y="1480" />
            </Array>
          </mxGeometry>
        </mxCell>
        <mxCell id="Edj0TxdFYXE61bS8NGij-20" value="Affiche la page mot de passe oublié" style="edgeLabel;html=1;align=center;verticalAlign=middle;resizable=0;points=[];" parent="Edj0TxdFYXE61bS8NGij-19" vertex="1" connectable="0">
          <mxGeometry x="0.4667" y="-2" relative="1" as="geometry">
            <mxPoint x="72" y="-8" as="offset" />
          </mxGeometry>
        </mxCell>
        <mxCell id="Edj0TxdFYXE61bS8NGij-22" style="edgeStyle=elbowEdgeStyle;rounded=0;orthogonalLoop=1;jettySize=auto;html=1;elbow=vertical;curved=0;" parent="1" target="Edj0TxdFYXE61bS8NGij-21" edge="1">
          <mxGeometry relative="1" as="geometry">
            <mxPoint x="94" y="1560" as="sourcePoint" />
            <Array as="points">
              <mxPoint x="270" y="1560" />
            </Array>
          </mxGeometry>
        </mxCell>
        <mxCell id="Edj0TxdFYXE61bS8NGij-23" value="Remplit le formulaire pour réinitialiser le mot de passe" style="edgeLabel;html=1;align=center;verticalAlign=middle;resizable=0;points=[];" parent="Edj0TxdFYXE61bS8NGij-22" vertex="1" connectable="0">
          <mxGeometry x="0.3059" relative="1" as="geometry">
            <mxPoint x="-49" y="-10" as="offset" />
          </mxGeometry>
        </mxCell>
        <mxCell id="Edj0TxdFYXE61bS8NGij-24" style="edgeStyle=elbowEdgeStyle;rounded=0;orthogonalLoop=1;jettySize=auto;html=1;elbow=vertical;curved=0;dashed=1;" parent="1" source="Edj0TxdFYXE61bS8NGij-21" edge="1">
          <mxGeometry relative="1" as="geometry">
            <mxPoint x="94" y="1640" as="targetPoint" />
            <Array as="points">
              <mxPoint x="210" y="1640" />
            </Array>
          </mxGeometry>
        </mxCell>
        <mxCell id="Edj0TxdFYXE61bS8NGij-25" value="Envoie un e-mail avec les informations de réinitialisation de mot de passe" style="edgeLabel;html=1;align=center;verticalAlign=middle;resizable=0;points=[];" parent="Edj0TxdFYXE61bS8NGij-24" vertex="1" connectable="0">
          <mxGeometry x="0.1382" relative="1" as="geometry">
            <mxPoint x="21" y="-10" as="offset" />
          </mxGeometry>
        </mxCell>
        <mxCell id="Edj0TxdFYXE61bS8NGij-26" value="frame" style="shape=umlFrame;whiteSpace=wrap;html=1;pointerEvents=0;" parent="1" vertex="1">
          <mxGeometry x="-320" y="1360" width="1280" height="760" as="geometry" />
        </mxCell>
        <mxCell id="Edj0TxdFYXE61bS8NGij-27" value="&lt;div&gt;Réinitialiser&lt;/div&gt;&lt;div&gt;le mot de passe&lt;/div&gt;" style="text;html=1;align=left;verticalAlign=middle;resizable=0;points=[];autosize=1;strokeColor=none;fillColor=none;fontSize=24;" parent="1" vertex="1">
          <mxGeometry x="-300" y="1410" width="190" height="70" as="geometry" />
        </mxCell>
        <mxCell id="Edj0TxdFYXE61bS8NGij-29" style="edgeStyle=elbowEdgeStyle;rounded=0;orthogonalLoop=1;jettySize=auto;html=1;elbow=vertical;curved=0;" parent="1" target="Edj0TxdFYXE61bS8NGij-28" edge="1">
          <mxGeometry relative="1" as="geometry">
            <mxPoint x="94" y="2280" as="sourcePoint" />
            <Array as="points">
              <mxPoint x="320" y="2280" />
            </Array>
          </mxGeometry>
        </mxCell>
        <mxCell id="Edj0TxdFYXE61bS8NGij-30" value="Accède à la page listant les figures" style="edgeLabel;html=1;align=center;verticalAlign=middle;resizable=0;points=[];" parent="Edj0TxdFYXE61bS8NGij-29" vertex="1" connectable="0">
          <mxGeometry x="-0.3236" relative="1" as="geometry">
            <mxPoint x="50" y="-10" as="offset" />
          </mxGeometry>
        </mxCell>
        <mxCell id="Edj0TxdFYXE61bS8NGij-31" style="edgeStyle=elbowEdgeStyle;rounded=0;orthogonalLoop=1;jettySize=auto;html=1;elbow=vertical;curved=0;dashed=1;" parent="1" source="Edj0TxdFYXE61bS8NGij-28" edge="1">
          <mxGeometry relative="1" as="geometry">
            <mxPoint x="94" y="2360" as="targetPoint" />
            <Array as="points">
              <mxPoint x="310" y="2360" />
            </Array>
          </mxGeometry>
        </mxCell>
        <mxCell id="Edj0TxdFYXE61bS8NGij-32" value="Affiche la page listant les figures" style="edgeLabel;html=1;align=center;verticalAlign=middle;resizable=0;points=[];" parent="Edj0TxdFYXE61bS8NGij-31" vertex="1" connectable="0">
          <mxGeometry x="0.4774" y="2" relative="1" as="geometry">
            <mxPoint x="74" y="-12" as="offset" />
          </mxGeometry>
        </mxCell>
        <mxCell id="mK7OmSGrJ99h75W3Krdq-1" style="edgeStyle=elbowEdgeStyle;rounded=0;orthogonalLoop=1;jettySize=auto;html=1;elbow=vertical;curved=0;" parent="1" target="mK7OmSGrJ99h75W3Krdq-3" edge="1">
          <mxGeometry relative="1" as="geometry">
            <mxPoint x="88.83333333333348" y="960" as="sourcePoint" />
            <Array as="points">
              <mxPoint x="250" y="960" />
            </Array>
          </mxGeometry>
        </mxCell>
        <mxCell id="mK7OmSGrJ99h75W3Krdq-2" value="Se connecte" style="edgeLabel;html=1;align=center;verticalAlign=middle;resizable=0;points=[];" parent="mK7OmSGrJ99h75W3Krdq-1" vertex="1" connectable="0">
          <mxGeometry x="-0.2764" relative="1" as="geometry">
            <mxPoint x="45" y="-10" as="offset" />
          </mxGeometry>
        </mxCell>
        <mxCell id="mK7OmSGrJ99h75W3Krdq-14" style="edgeStyle=elbowEdgeStyle;rounded=0;orthogonalLoop=1;jettySize=auto;html=1;elbow=vertical;curved=0;" parent="1" source="mK7OmSGrJ99h75W3Krdq-3" target="mK7OmSGrJ99h75W3Krdq-13" edge="1">
          <mxGeometry relative="1" as="geometry" />
        </mxCell>
        <mxCell id="mK7OmSGrJ99h75W3Krdq-15" value="Requête la vérification d&#39;informations" style="edgeLabel;html=1;align=center;verticalAlign=middle;resizable=0;points=[];" parent="mK7OmSGrJ99h75W3Krdq-14" vertex="1" connectable="0">
          <mxGeometry x="-0.2932" relative="1" as="geometry">
            <mxPoint x="50" y="-10" as="offset" />
          </mxGeometry>
        </mxCell>
        <mxCell id="mK7OmSGrJ99h75W3Krdq-3" value="" style="html=1;points=[];perimeter=orthogonalPerimeter;outlineConnect=0;targetShapes=umlLifeline;portConstraint=eastwest;newEdgeStyle={&quot;edgeStyle&quot;:&quot;elbowEdgeStyle&quot;,&quot;elbow&quot;:&quot;vertical&quot;,&quot;curved&quot;:0,&quot;rounded&quot;:0};" parent="1" vertex="1">
          <mxGeometry x="409" y="960" width="10" height="80.2" as="geometry" />
        </mxCell>
        <mxCell id="mK7OmSGrJ99h75W3Krdq-4" value="" style="html=1;points=[];perimeter=orthogonalPerimeter;outlineConnect=0;targetShapes=umlLifeline;portConstraint=eastwest;newEdgeStyle={&quot;edgeStyle&quot;:&quot;elbowEdgeStyle&quot;,&quot;elbow&quot;:&quot;vertical&quot;,&quot;curved&quot;:0,&quot;rounded&quot;:0};" parent="1" vertex="1">
          <mxGeometry x="408" y="1120" width="10" height="80.2" as="geometry" />
        </mxCell>
        <mxCell id="mK7OmSGrJ99h75W3Krdq-9" style="edgeStyle=elbowEdgeStyle;rounded=0;orthogonalLoop=1;jettySize=auto;html=1;elbow=vertical;curved=0;dashed=1;" parent="1" source="mK7OmSGrJ99h75W3Krdq-4" edge="1">
          <mxGeometry relative="1" as="geometry">
            <mxPoint x="94" y="1200" as="targetPoint" />
            <Array as="points">
              <mxPoint x="210" y="1200" />
            </Array>
          </mxGeometry>
        </mxCell>
        <mxCell id="mK7OmSGrJ99h75W3Krdq-10" value="Confirme l&#39;authentification" style="edgeLabel;html=1;align=center;verticalAlign=middle;resizable=0;points=[];" parent="mK7OmSGrJ99h75W3Krdq-9" vertex="1" connectable="0">
          <mxGeometry x="0.1382" relative="1" as="geometry">
            <mxPoint x="11" y="-10" as="offset" />
          </mxGeometry>
        </mxCell>
        <mxCell id="mK7OmSGrJ99h75W3Krdq-11" value="frame" style="shape=umlFrame;whiteSpace=wrap;html=1;pointerEvents=0;" parent="1" vertex="1">
          <mxGeometry x="-320" y="920" width="1280" height="320" as="geometry" />
        </mxCell>
        <mxCell id="mK7OmSGrJ99h75W3Krdq-12" value="Se connecter" style="text;html=1;align=center;verticalAlign=middle;resizable=0;points=[];autosize=1;strokeColor=none;fillColor=none;fontSize=24;" parent="1" vertex="1">
          <mxGeometry x="-300" y="970" width="160" height="40" as="geometry" />
        </mxCell>
        <mxCell id="mK7OmSGrJ99h75W3Krdq-16" style="edgeStyle=elbowEdgeStyle;rounded=0;orthogonalLoop=1;jettySize=auto;html=1;elbow=vertical;curved=0;dashed=1;" parent="1" source="mK7OmSGrJ99h75W3Krdq-13" target="mK7OmSGrJ99h75W3Krdq-4" edge="1">
          <mxGeometry relative="1" as="geometry" />
        </mxCell>
        <mxCell id="mK7OmSGrJ99h75W3Krdq-17" value="Renvoie la réponse" style="edgeLabel;html=1;align=center;verticalAlign=middle;resizable=0;points=[];" parent="mK7OmSGrJ99h75W3Krdq-16" vertex="1" connectable="0">
          <mxGeometry x="0.1877" relative="1" as="geometry">
            <mxPoint x="37" y="-10" as="offset" />
          </mxGeometry>
        </mxCell>
        <mxCell id="mK7OmSGrJ99h75W3Krdq-22" style="edgeStyle=elbowEdgeStyle;rounded=0;orthogonalLoop=1;jettySize=auto;html=1;elbow=vertical;curved=0;" parent="1" edge="1">
          <mxGeometry relative="1" as="geometry">
            <mxPoint x="414" y="1800.0000000000002" as="sourcePoint" />
            <mxPoint x="735" y="1800.1333333333334" as="targetPoint" />
          </mxGeometry>
        </mxCell>
        <mxCell id="mK7OmSGrJ99h75W3Krdq-26" value="Requête l&#39;enregistrement du nouveau mot de passe" style="edgeLabel;html=1;align=center;verticalAlign=middle;resizable=0;points=[];" parent="mK7OmSGrJ99h75W3Krdq-22" vertex="1" connectable="0">
          <mxGeometry x="-0.5188" y="2" relative="1" as="geometry">
            <mxPoint x="90" y="-8" as="offset" />
          </mxGeometry>
        </mxCell>
        <mxCell id="mK7OmSGrJ99h75W3Krdq-24" style="edgeStyle=elbowEdgeStyle;rounded=0;orthogonalLoop=1;jettySize=auto;html=1;elbow=vertical;curved=0;dashed=1;" parent="1" source="mK7OmSGrJ99h75W3Krdq-21" target="mK7OmSGrJ99h75W3Krdq-23" edge="1">
          <mxGeometry relative="1" as="geometry">
            <Array as="points">
              <mxPoint x="590" y="1880" />
              <mxPoint x="480" y="1800" />
            </Array>
          </mxGeometry>
        </mxCell>
        <mxCell id="mK7OmSGrJ99h75W3Krdq-27" value="Confirme l&#39;enregistrement en BDD" style="edgeLabel;html=1;align=center;verticalAlign=middle;resizable=0;points=[];" parent="mK7OmSGrJ99h75W3Krdq-24" vertex="1" connectable="0">
          <mxGeometry x="0.2288" y="-2" relative="1" as="geometry">
            <mxPoint x="91" y="-8" as="offset" />
          </mxGeometry>
        </mxCell>
        <mxCell id="B6xTi430lZFlDptCgqHK-19" style="edgeStyle=elbowEdgeStyle;rounded=0;orthogonalLoop=1;jettySize=auto;html=1;elbow=vertical;curved=0;" edge="1" parent="1" source="VzBomBVX7HgXpCq8d6OW-50" target="mK7OmSGrJ99h75W3Krdq-23">
          <mxGeometry relative="1" as="geometry">
            <Array as="points">
              <mxPoint x="252" y="1720" />
            </Array>
          </mxGeometry>
        </mxCell>
        <mxCell id="B6xTi430lZFlDptCgqHK-20" value="Accède à la page de réinitialisation de mot de passe" style="edgeLabel;html=1;align=center;verticalAlign=middle;resizable=0;points=[];" vertex="1" connectable="0" parent="B6xTi430lZFlDptCgqHK-19">
          <mxGeometry x="-0.2042" y="2" relative="1" as="geometry">
            <mxPoint x="21" y="-8" as="offset" />
          </mxGeometry>
        </mxCell>
        <mxCell id="B6xTi430lZFlDptCgqHK-22" style="edgeStyle=elbowEdgeStyle;rounded=0;orthogonalLoop=1;jettySize=auto;html=1;elbow=vertical;curved=0;dashed=1;" edge="1" parent="1">
          <mxGeometry relative="1" as="geometry">
            <mxPoint x="409" y="1960.2033333333334" as="sourcePoint" />
            <mxPoint x="94" y="1960.2033333333334" as="targetPoint" />
          </mxGeometry>
        </mxCell>
        <mxCell id="B6xTi430lZFlDptCgqHK-23" value="Redirige vers la page de connexion avec un message de succès" style="edgeLabel;html=1;align=center;verticalAlign=middle;resizable=0;points=[];" vertex="1" connectable="0" parent="B6xTi430lZFlDptCgqHK-22">
          <mxGeometry x="0.2929" y="1" relative="1" as="geometry">
            <mxPoint x="45" y="-11" as="offset" />
          </mxGeometry>
        </mxCell>
        <mxCell id="B6xTi430lZFlDptCgqHK-21" value="" style="html=1;points=[];perimeter=orthogonalPerimeter;outlineConnect=0;targetShapes=umlLifeline;portConstraint=eastwest;newEdgeStyle={&quot;edgeStyle&quot;:&quot;elbowEdgeStyle&quot;,&quot;elbow&quot;:&quot;vertical&quot;,&quot;curved&quot;:0,&quot;rounded&quot;:0};" vertex="1" parent="1">
          <mxGeometry x="409" y="1880" width="10" height="80.2" as="geometry" />
        </mxCell>
        <mxCell id="B6xTi430lZFlDptCgqHK-25" style="edgeStyle=elbowEdgeStyle;rounded=0;orthogonalLoop=1;jettySize=auto;html=1;elbow=vertical;curved=0;startArrow=classic;startFill=1;endArrow=none;endFill=0;" edge="1" parent="1">
          <mxGeometry relative="1" as="geometry">
            <mxPoint x="409" y="2440" as="sourcePoint" />
            <mxPoint x="94" y="2440" as="targetPoint" />
          </mxGeometry>
        </mxCell>
        <mxCell id="B6xTi430lZFlDptCgqHK-26" value="Sélectionne une figure" style="edgeLabel;html=1;align=center;verticalAlign=middle;resizable=0;points=[];" vertex="1" connectable="0" parent="B6xTi430lZFlDptCgqHK-25">
          <mxGeometry x="0.0596" relative="1" as="geometry">
            <mxPoint x="8" y="-10" as="offset" />
          </mxGeometry>
        </mxCell>
        <mxCell id="B6xTi430lZFlDptCgqHK-30" style="edgeStyle=elbowEdgeStyle;rounded=0;orthogonalLoop=1;jettySize=auto;html=1;elbow=vertical;curved=0;dashed=1;" edge="1" parent="1" source="drv3APGmW7GYEXX_s7Kb-24" target="drv3APGmW7GYEXX_s7Kb-27">
          <mxGeometry relative="1" as="geometry">
            <Array as="points">
              <mxPoint x="680" y="2600" />
            </Array>
          </mxGeometry>
        </mxCell>
        <mxCell id="B6xTi430lZFlDptCgqHK-31" value="Renvoie les détails de la figure" style="edgeLabel;html=1;align=center;verticalAlign=middle;resizable=0;points=[];" vertex="1" connectable="0" parent="B6xTi430lZFlDptCgqHK-30">
          <mxGeometry x="-0.2962" y="2" relative="1" as="geometry">
            <mxPoint x="-43" y="-10" as="offset" />
          </mxGeometry>
        </mxCell>
        <mxCell id="B6xTi430lZFlDptCgqHK-32" style="edgeStyle=elbowEdgeStyle;rounded=0;orthogonalLoop=1;jettySize=auto;html=1;elbow=vertical;curved=0;" edge="1" parent="1" source="drv3APGmW7GYEXX_s7Kb-21" target="drv3APGmW7GYEXX_s7Kb-24">
          <mxGeometry relative="1" as="geometry">
            <Array as="points">
              <mxPoint x="577" y="2520" />
            </Array>
          </mxGeometry>
        </mxCell>
        <mxCell id="B6xTi430lZFlDptCgqHK-33" value="Requête les informations de la figure" style="edgeLabel;html=1;align=center;verticalAlign=middle;resizable=0;points=[];" vertex="1" connectable="0" parent="B6xTi430lZFlDptCgqHK-32">
          <mxGeometry x="-0.0749" y="3" relative="1" as="geometry">
            <mxPoint x="13" y="-7" as="offset" />
          </mxGeometry>
        </mxCell>
        <mxCell id="B6xTi430lZFlDptCgqHK-34" style="edgeStyle=elbowEdgeStyle;rounded=0;orthogonalLoop=1;jettySize=auto;html=1;elbow=vertical;curved=0;dashed=1;" edge="1" parent="1">
          <mxGeometry relative="1" as="geometry">
            <mxPoint x="408" y="2680.0044444444443" as="sourcePoint" />
            <mxPoint x="94" y="2680.0044444444443" as="targetPoint" />
          </mxGeometry>
        </mxCell>
        <mxCell id="B6xTi430lZFlDptCgqHK-35" value="Affiche les détails de la figure" style="edgeLabel;html=1;align=center;verticalAlign=middle;resizable=0;points=[];" vertex="1" connectable="0" parent="B6xTi430lZFlDptCgqHK-34">
          <mxGeometry x="-0.2016" y="-1" relative="1" as="geometry">
            <mxPoint x="-33" y="-9" as="offset" />
          </mxGeometry>
        </mxCell>
      </root>
    </mxGraphModel>
  </diagram>
</mxfile>
